<?xml version="1.0" encoding="UTF-8"?>
<svg id="Warstwa_2" data-name="Warstwa 2" xmlns="http://www.w3.org/2000/svg" viewBox="0 0 460.77 450">
  <defs>
    <style>
      .cls-1 {
        fill: #333;
      }

      .cls-1, .cls-2 {
        stroke-width: 0px;
      }

      .cls-2 {
        fill: #6bd600;
      }
    </style>
  </defs>
  <g id="Warstwa_1-2" data-name="Warstwa 1">
    <ellipse class="cls-1" cx="230.38" cy="225" rx="230.38" ry="225"/>
    <g>
      <path class="cls-2" d="m250.13,38c-1.02,4.84-2.65,12.16-5,21-4.5,16.91-8.44,27.38-13,41-7.04,21.02-10.56,31.53-13,43-1.39,6.5-2.83,15.16-2,66,.55,33.95.83,50.93,2,65,1.47,17.65,3.5,32.57,4,58,.18,9.27.1,16.91,0,22-2.34-2.01-5.86-5.09-10-9-15.59-14.7-25.4-27.25-30-33-2.58-3.21-16.05-17.81-43-47-9.95-10.78-22.67-26.62-41-46-.87,1.36-2.47.94-5,6-3,6-2.94,9.82-3,12-.52,17.33.23,25,1,30,3.57,23.12,18.1,41.26,23,47-6.65,4.8-13.74,10.43-21,17-9.52,8.61-17.46,17.15-24,25-1.76-7.06-4.26-17.42-7-30-7.31-33.55-10.97-50.32-11-65-.05-22.23,5.58-38.16,14-62,5.8-16.43,14.79-37.32,29-60,1.04,4.93,2.82,11.95,6,20,6,15.2,14.45,27.66,35,50,11.86,12.89,27.48,28.78,47,46,.39-2.5,2.55-16.71,0-28-.8-3.54-2-7-2-7-2.14-6.17-4.63-10.35-5-11-8.29-14.6,1-48,1-48,3.82-13.74,12.66-39.87,40-80,7.83-11.49,18.72-26.41,33-43Z"/>
      <path class="cls-2" d="m243.13,213c-.49,19.76-.8,35.97-1,48,0,0-.13,7.74,0,19,.26,22.79,1.25,27.86,2,31,1.69,7.09,3.53,14.81,10,22,6,6.67,12.86,9.4,17,11,15.24,5.88,29.14,3.21,35,2,24.98-5.14,40.07-22.7,45-29,.37,1.71.98,4.15,2,7,2.43,6.74,5.86,16.29,15,22,11.04,6.89,23.32,3.76,26,3,9.24-2.62,14.82-8.45,17-11-.38-.38-6.61-6.61-7-7-5.72-5.72-5.84-5.84-6-6-5.12-5.19-10.43-14.16-13-22-2.9-8.87-.29-10.19-1-29-.58-15.44-.87-23.15-5-32-1.78-3.82-7.05-14.6-19-21-7.59-4.07-14.83-4.74-18-5-3.32-.27-8.11-.63-14,1-3.17.87-8.41,2.39-13,7-2.41,2.42-6.41,6.43-6,12,.03.45.43,4.99,4,8,2.3,1.94,4.43,2,10,3,6.37,1.15,9.71,1.75,13,3,3.17,1.2,9.98,3.79,13,10,2.66,5.45,1.1,11.04,0,15-3.29,11.82-11.9,18.78-16,22-4.07,3.2-13.89,10.69-28,11-5.4.12-12.21.27-18-4-9.36-6.9-9.7-20.66-10-33-.26-10.48,1.42-13.13,3-34,.58-7.59.85-13.84,1-18-1.94-1.21-4.63-2.7-8-4-1.24-.48-6.15-2.31-13-3-6.63-.66-12.45,0-17,1Z"/>
    </g>
  </g>
</svg>