<svg xmlns="http://www.w3.org/2000/svg" viewBox="0 0 865.16 175.01"><defs><style>.cls-1{fill:#fff;}.cls-2{fill:#6bd600;}</style></defs><g id="Warstwa_2" data-name="Warstwa 2"><g id="Warstwa_1-2" data-name="Warstwa 1"><polygon class="cls-1" points="282.31 144.6 281.2 144.6 256.7 84.47 253.35 84.47 249.35 84.47 242.66 84.47 242.66 163.53 253.35 163.53 253.35 103.4 254.47 103.4 278.97 163.53 282.31 163.53 283.98 163.53 293 163.53 293 84.47 282.31 84.47 282.31 144.6"/><path class="cls-1" d="M334.19,103.4q-12.24,0-19,8T308.36,134q0,14.6,6.79,22.61t19,8q12.31,0,19.08-8T360,134q0-14.64-6.76-22.63T334.19,103.4Zm10.06,45.43a12.27,12.27,0,0,1-20.11,0q-3.52-5.22-3.53-14.81t3.53-14.84a12.32,12.32,0,0,1,20.11,0q3.53,5.2,3.53,14.84T344.25,148.83Z"/><polygon class="cls-1" points="413.36 154.63 412.36 154.63 405.4 104.51 394.6 104.51 387.64 154.63 386.64 154.63 382.18 104.51 371.05 104.51 377.73 163.53 392.76 163.53 399.67 116.65 400.33 116.65 407.24 163.53 421.72 163.53 430.07 104.51 418.38 104.51 413.36 154.63"/><path class="cls-1" d="M488,152.84V128.23q0-11.68-7.1-17.79t-21.75-6.32L447.21,104l-1.12,10.47,14.15.39c5.45.15,9.57,1.14,12.33,3s4.15,4.73,4.15,8.66v2.73c-.56-.11-1.12-.22-1.7-.31a63.21,63.21,0,0,0-9.44-.64q-12.75,0-19.74,5t-7,14.37q0,8.13,5.06,12.58t14.31,4.46a27.53,27.53,0,0,0,10.14-1.7,14.18,14.18,0,0,0,6.65-5.12,13.85,13.85,0,0,0,2.28-6.77h1.18l.58,13,18.93-.56v-9.46Zm-13.09-4.4a13.54,13.54,0,0,1-5.54,4.85,20.14,20.14,0,0,1-9.21,1.89q-4.85,0-7.49-2.11a7.26,7.26,0,0,1-2.65-6q0-9.35,15.37-9.35c2.49,0,4.92,0,7.29.14a38,38,0,0,1,4.07.38v4.15A11.28,11.28,0,0,1,474.88,148.44Z"/><polygon class="cls-1" points="583.12 147.6 582.01 147.6 557.51 87.47 554.17 87.47 550.16 87.47 543.48 87.47 543.48 166.53 554.17 166.53 554.17 106.4 555.28 106.4 579.78 166.53 583.12 166.53 584.79 166.53 593.81 166.53 593.81 87.47 583.12 87.47 583.12 147.6"/><path class="cls-1" d="M656.05,131.23q0-11.68-7.1-17.79t-21.74-6.32L615.29,107l-1.11,10.47,14.14.39q8.19.22,12.34,3t4.15,8.66v2.73c-.56-.11-1.12-.22-1.7-.31a63.4,63.4,0,0,0-9.44-.64q-12.75,0-19.74,5t-7,14.37q0,8.13,5.07,12.58t14.31,4.46a27.48,27.48,0,0,0,10.13-1.7,14.21,14.21,0,0,0,6.66-5.12,14,14,0,0,0,2.28-6.77h1.17l.58,13,18.94-.56v-9.46l-10-1.23ZM643,151.44a13.6,13.6,0,0,1-5.54,4.85,20.16,20.16,0,0,1-9.22,1.89c-3.23,0-5.72-.7-7.49-2.11a7.29,7.29,0,0,1-2.64-6q0-9.35,15.37-9.35c2.48,0,4.91,0,7.29.14a38.27,38.27,0,0,1,4.07.38v4.15A11.37,11.37,0,0,1,643,151.44Z"/><path class="cls-1" d="M723.75,146.49v-39H712v31.74q0,9.63-3.29,13.73t-9.74,4.09q-5.24,0-8.13-2.76c-1.93-1.84-2.9-4.44-2.9-7.82v-39h-11.8v39q0,10.08,5.09,15.62t14.4,5.54a15.62,15.62,0,0,0,10-3.23,16,16,0,0,0,5.46-9.25h1l.85,11.92,18.93-.56v-9.46l-8.13-1.23Z"/><path class="cls-1" d="M783.52,135.05q8.15-9.11,10.49-27.54H781.76a53,53,0,0,1-4,15.26,17.39,17.39,0,0,1-7.43,8.27q-4.74,2.53-12.09,2.53H755V83h-11.8v83.52H755V144.15h6a37,37,0,0,0,8.51-.93l13.65,23.31H797.8L780.42,138A27.69,27.69,0,0,0,783.52,135.05Z"/><path class="cls-1" d="M855.14,155.84V131.23q0-11.68-7.1-17.79t-21.74-6.32L814.38,107l-1.11,10.47,14.14.39q8.19.22,12.33,3t4.15,8.66v2.73c-.55-.11-1.11-.22-1.7-.31a63.17,63.17,0,0,0-9.43-.64q-12.76,0-19.74,5t-7,14.37q0,8.13,5.07,12.58t14.31,4.46a27.51,27.51,0,0,0,10.13-1.7,14.13,14.13,0,0,0,6.65-5.12,13.75,13.75,0,0,0,2.28-6.77h1.18l.58,13,18.93-.56v-9.46Zm-13.08-4.4a13.63,13.63,0,0,1-5.55,4.85,20.11,20.11,0,0,1-9.21,1.89q-4.84,0-7.49-2.11a7.29,7.29,0,0,1-2.65-6q0-9.35,15.37-9.35c2.49,0,4.92,0,7.3.14a38.09,38.09,0,0,1,4.06.38v4.15A11.36,11.36,0,0,1,842.06,151.44Z"/><path class="cls-2" d="M109,0c-.56,2.66-1.46,6.69-2.75,11.56-2.48,9.3-4.65,15.06-7.16,22.56-3.87,11.57-5.8,17.35-7.15,23.67-.76,3.58-1.56,8.34-1.1,36.32.3,18.69.46,28,1.1,35.77.81,9.72,1.93,17.93,2.2,31.93.1,5.1.06,9.3,0,12.1-1.29-1.1-3.22-2.8-5.5-4.95A163.69,163.69,0,0,1,72.1,150.8c-1.42-1.77-8.84-9.8-23.67-25.87C43,119,36,110.28,25.87,99.61c-.48.75-1.36.52-2.75,3.31a13.76,13.76,0,0,0-1.66,6.6c-.28,9.54.13,13.76.55,16.51,2,12.73,10,22.71,12.66,25.87A135.54,135.54,0,0,0,9.91,175c-1-3.88-2.35-9.58-3.86-16.51C2,140,0,130.81,0,122.73c0-12.24,3.07-21,7.71-34.12a166.24,166.24,0,0,1,16-33,68.09,68.09,0,0,0,3.3,11c3.3,8.37,8,15.23,19.26,27.52A346.14,346.14,0,0,0,72.1,119.43c.21-1.38,1.4-9.2,0-15.41-.44-2-1.1-3.85-1.1-3.85a34.28,34.28,0,0,0-2.76-6.06c-4.56-8,.55-26.42.55-26.42,2.11-7.56,7-21.94,22-44A263.74,263.74,0,0,1,109,0Z"/><path class="cls-2" d="M105.12,96.31c-.27,10.88-.44,19.8-.55,26.42,0,0-.07,4.26,0,10.46.14,12.54.69,15.33,1.1,17.06.93,3.9,1.94,8.15,5.5,12.11a23.07,23.07,0,0,0,9.36,6c8.39,3.24,16,1.76,19.26,1.1,13.75-2.83,22.05-12.49,24.77-16a28.36,28.36,0,0,0,1.1,3.85c1.33,3.71,3.22,9,8.25,12.11,6.08,3.79,12.84,2.07,14.31,1.65a19.38,19.38,0,0,0,9.36-6l-3.85-3.86-3.31-3.3a34.09,34.09,0,0,1-7.15-12.11c-1.6-4.88-.16-5.6-.55-16-.32-8.49-.48-12.74-2.75-17.61a24.62,24.62,0,0,0-10.46-11.55A25,25,0,0,0,159.6,98a21,21,0,0,0-7.7.55,15.34,15.34,0,0,0-7.16,3.86c-1.32,1.33-3.52,3.53-3.3,6.6a6.79,6.79,0,0,0,2.2,4.4c1.27,1.07,2.44,1.1,5.51,1.65a40.6,40.6,0,0,1,7.15,1.66c1.75.66,5.49,2.08,7.16,5.5,1.46,3,.6,6.07,0,8.25-1.81,6.51-6.55,10.34-8.81,12.11s-7.64,5.89-15.41,6.06c-3,.06-6.72.14-9.91-2.2-5.15-3.8-5.33-11.37-5.5-18.17-.14-5.76.78-7.22,1.65-18.71.32-4.18.47-7.62.55-9.91a26.24,26.24,0,0,0-4.4-2.2,28.45,28.45,0,0,0-7.16-1.65A30.27,30.27,0,0,0,105.12,96.31Z"/></g></g></svg>