<svg xmlns="http://www.w3.org/2000/svg" viewBox="0 0 578 128.87"><defs><style>.cls-1{font-size:80.37px;fill:#323232;font-family:ChakraPetch-SemiBold, Chakra Petch;font-weight:600;letter-spacing:0em;}.cls-2{letter-spacing:-0.01em;}.cls-3{letter-spacing:-0.02em;}.cls-4{letter-spacing:0em;}.cls-5{letter-spacing:-0.02em;}.cls-6{fill:#6bd600;}</style></defs><g id="Warstwa_2" data-name="Warstwa 2"><g id="Warstwa_1-2" data-name="Warstwa 1"><text class="cls-1" transform="translate(120.31 84.27)">N<tspan class="cls-2" x="55.05" y="0">o</tspan><tspan class="cls-3" x="100.94" y="0">w</tspan><tspan class="cls-4" x="157.04" y="0">a Nau</tspan><tspan class="cls-5" x="369.93" y="0">k</tspan><tspan x="412.44" y="0">a</tspan></text><path class="cls-6" d="M59.61,0c-.3,1.46-.8,3.66-1.5,6.32-1.36,5.09-2.54,8.24-3.92,12.35a118.1,118.1,0,0,0-3.91,12.94c-.42,2-.85,4.57-.6,19.87.16,10.23.25,15.34.6,19.57.44,5.32,1,9.81,1.2,17.46.06,2.8,0,5.1,0,6.63-.7-.61-1.76-1.54-3-2.71a90.68,90.68,0,0,1-9-9.94c-.78-1-4.83-5.36-12.95-14.15-3-3.24-6.82-8-12.34-13.85-.26.41-.74.29-1.51,1.81a7.59,7.59,0,0,0-.9,3.61,49.06,49.06,0,0,0,.3,9c1.08,7,5.45,12.43,6.93,14.16a75.19,75.19,0,0,0-6.33,5.11,76,76,0,0,0-7.22,7.53c-.53-2.13-1.28-5.24-2.11-9C1.11,76.61,0,71.56,0,67.14c0-6.7,1.68-11.49,4.22-18.67A90.61,90.61,0,0,1,13,30.41a37.69,37.69,0,0,0,1.8,6c1.81,4.58,4.35,8.33,10.54,15A188.62,188.62,0,0,0,39.44,65.33a25.32,25.32,0,0,0,0-8.43c-.24-1.06-.6-2.11-.6-2.11a20,20,0,0,0-1.51-3.31c-2.49-4.39.3-14.45.3-14.45,1.15-4.14,3.82-12,12-24.08A142.37,142.37,0,0,1,59.61,0Z"/><path class="cls-6" d="M57.5,52.69c-.14,6-.24,10.83-.3,14.45,0,0,0,2.33,0,5.72.08,6.86.38,8.39.61,9.33a13.7,13.7,0,0,0,3,6.63,12.59,12.59,0,0,0,5.11,3.31,18.47,18.47,0,0,0,10.54.6A23.82,23.82,0,0,0,90,84a16.32,16.32,0,0,0,.6,2.11c.73,2,1.77,4.9,4.52,6.62a10.08,10.08,0,0,0,7.83.9,10.53,10.53,0,0,0,5.11-3.31L106,88.21l-1.81-1.8a18.74,18.74,0,0,1-3.91-6.63c-.88-2.67-.09-3.06-.3-8.73-.18-4.65-.27-7-1.51-9.63a13.45,13.45,0,0,0-5.72-6.32,13.62,13.62,0,0,0-5.42-1.51,11.42,11.42,0,0,0-4.21.3A8.26,8.26,0,0,0,79.18,56a4.78,4.78,0,0,0-1.81,3.61A3.69,3.69,0,0,0,78.58,62c.69.59,1.33.6,3,.9a21.8,21.8,0,0,1,3.91.91,6.75,6.75,0,0,1,3.92,3,6.18,6.18,0,0,1,0,4.51A13,13,0,0,1,84.6,78a14,14,0,0,1-8.43,3.31c-1.63,0-3.68.08-5.42-1.21-2.82-2.07-2.92-6.22-3-9.93-.08-3.16.43-4,.9-10.24.18-2.28.26-4.17.3-5.42a14.36,14.36,0,0,0-2.4-1.2,15,15,0,0,0-3.92-.9A16.38,16.38,0,0,0,57.5,52.69Z"/></g></g></svg>