<svg xmlns="http://www.w3.org/2000/svg" viewBox="0 0 754.88 130.93"><defs><style>.cls-1{fill:#fff;}.cls-2{fill:#6bd600;}</style></defs><g id="Warstwa_2" data-name="Warstwa 2"><g id="Warstwa_1-2" data-name="Warstwa 1"><path class="cls-1" d="M172.06,123.22V46.36H183l24.62,38.85a221,221,0,0,1,13.71,25l.26-.12c-.91-10.26-1.08-19.63-1.08-31.54V46.36h9.34v76.86H219.74l-24.43-39A252.13,252.13,0,0,1,181,58.53l-.34.12c.6,9.74.73,19,.73,31.7v32.87Z"/><path class="cls-1" d="M296,95.12c0,20.42-14.17,29.35-27.42,29.35-15,0-26.51-10.9-26.51-28.4,0-18.46,12.13-29.25,27.38-29.25C285.34,66.82,296,78.32,296,95.12Zm-43.72.64c0,12.09,6.93,21.2,16.71,21.2,9.62,0,16.81-9,16.81-21.5,0-9.33-4.71-21.13-16.63-21.13C257.43,74.33,252.31,85.3,252.31,95.76Z"/><path class="cls-1" d="M311.39,68.07l7.41,28c1.59,6.15,3,11.92,4.1,17.59h.27c1.23-5.55,3.06-11.54,4.94-17.51l9-28.07h8.44l8.58,27.58c2,6.54,3.59,12.39,4.87,18h.27c1-5.58,2.49-11.39,4.28-17.91l7.87-27.67h9.89l-17.81,55.15H354.4L346,96.9a165.3,165.3,0,0,1-4.89-18.18h-.23a162.93,162.93,0,0,1-5,18.27L327,123.22h-9.17L301.19,68.07Z"/><path class="cls-1" d="M421.06,123.22l-.88-7h-.3A20.51,20.51,0,0,1,403,124.47c-11.14,0-16.85-7.91-16.85-15.82,0-13.36,11.84-20.7,33.15-20.55V86.93c0-4.48-1.27-12.78-12.56-12.72a26.85,26.85,0,0,0-14.37,4.11l-2.27-6.67c4.56-2.94,11.24-4.83,18.2-4.83,16.85,0,21,11.52,21,22.57V110a86,86,0,0,0,.84,13.2ZM419.5,95.06c-10.85-.23-23.28,1.72-23.28,12.38,0,6.58,4.33,9.6,9.37,9.6A13.81,13.81,0,0,0,419,107.81a10.67,10.67,0,0,0,.47-3.16Z"/><path class="cls-1" d="M469,123.22V46.36h10.91l24.62,38.85a222.54,222.54,0,0,1,13.71,25l.25-.12c-.9-10.26-1.08-19.63-1.08-31.54V46.36h9.35v76.86H516.69l-24.43-39A252.13,252.13,0,0,1,478,58.53l-.34.12c.6,9.74.73,19,.73,31.7v32.87Z"/><path class="cls-1" d="M573.87,123.22l-.89-7h-.3a20.48,20.48,0,0,1-16.87,8.22c-11.14,0-16.84-7.91-16.84-15.82,0-13.36,11.84-20.7,33.14-20.55V86.93c0-4.48-1.26-12.78-12.56-12.72a26.82,26.82,0,0,0-14.36,4.11l-2.28-6.67c4.57-2.94,11.24-4.83,18.2-4.83,16.86,0,21,11.52,21,22.57V110a86.1,86.1,0,0,0,.83,13.2Zm-1.56-28.16C561.46,94.83,549,96.78,549,107.44c0,6.58,4.33,9.6,9.36,9.6a13.81,13.81,0,0,0,13.44-9.23,10.38,10.38,0,0,0,.48-3.16Z"/><path class="cls-1" d="M643.91,108.12c0,5.79.19,10.74.46,15.1h-8.86l-.54-9h-.28a20.59,20.59,0,0,1-18.25,10.27c-8.63,0-19-4.84-19-24.17V68.07h10V98.54c0,10.5,3.27,17.66,12.32,17.66,6.72,0,11.42-4.7,13.27-9.21a15.36,15.36,0,0,0,.91-5.14V68.07h10Z"/><path class="cls-1" d="M670.13,93.36h.23c1.34-1.94,3.24-4.38,4.81-6.28l16.26-19h12L682.18,90.75l24.27,32.47H694.23l-19-26.5-5.13,5.74v20.76h-10v-81h10Z"/><path class="cls-1" d="M745.83,123.22l-.88-7h-.3a20.51,20.51,0,0,1-16.87,8.22c-11.14,0-16.85-7.91-16.85-15.82,0-13.36,11.84-20.7,33.14-20.55V86.93c0-4.48-1.26-12.78-12.55-12.72a26.85,26.85,0,0,0-14.37,4.11l-2.27-6.67c4.56-2.94,11.24-4.83,18.2-4.83,16.85,0,21,11.52,21,22.57V110a86,86,0,0,0,.84,13.2Zm-1.56-28.16C733.42,94.83,721,96.78,721,107.44c0,6.58,4.33,9.6,9.37,9.6a13.81,13.81,0,0,0,13.44-9.23,10.67,10.67,0,0,0,.47-3.16Z"/><path class="cls-2" d="M81.52,0c-.42,2-1.09,5-2.06,8.65-1.85,7-3.47,11.27-5.35,16.88-2.89,8.65-4.34,13-5.35,17.7-.57,2.68-1.16,6.25-.82,27.18.22,14,.34,21,.82,26.76.6,7.27,1.44,13.41,1.65,23.88.07,3.82,0,7,0,9.06-1-.83-2.42-2.1-4.12-3.71a122.26,122.26,0,0,1-12.35-13.58c-1.06-1.33-6.61-7.34-17.71-19.36C32.14,89,26.9,82.5,19.35,74.52c-.36.56-1,.39-2.06,2.47a10.29,10.29,0,0,0-1.23,5c-.21,7.13.09,10.29.41,12.35,1.47,9.52,7.45,17,9.47,19.35a100.5,100.5,0,0,0-8.65,7,101.76,101.76,0,0,0-9.88,10.29c-.72-2.91-1.75-7.17-2.88-12.35C1.52,104.77,0,97.86,0,91.82c0-9.16,2.3-15.71,5.76-25.53A125,125,0,0,1,17.7,41.59a51.26,51.26,0,0,0,2.48,8.23c2.47,6.26,5.94,11.39,14.41,20.59A260.13,260.13,0,0,0,53.94,89.35c.16-1,1.05-6.88,0-11.53a29.56,29.56,0,0,0-.83-2.88,26.18,26.18,0,0,0-2-4.53c-3.42-6,.41-19.77.41-19.77C53,45,56.68,34.23,67.94,17.7A199,199,0,0,1,81.52,0Z"/><path class="cls-2" d="M78.64,72.05c-.2,8.14-.33,14.82-.41,19.77,0,0,0,3.18,0,7.82.11,9.38.52,11.47.82,12.76.7,2.92,1.46,6.1,4.12,9.06a17.16,17.16,0,0,0,7,4.53,25.18,25.18,0,0,0,14.41.82c10.29-2.11,16.5-9.34,18.53-11.94a22.51,22.51,0,0,0,.82,2.89c1,2.77,2.41,6.7,6.18,9,4.54,2.84,9.6,1.55,10.7,1.24a14.43,14.43,0,0,0,7-4.53l-2.88-2.88c-2.35-2.36-2.41-2.41-2.47-2.47a25.41,25.41,0,0,1-5.35-9.06c-1.2-3.65-.12-4.19-.41-11.94-.24-6.36-.36-9.53-2.06-13.18a17.43,17.43,0,0,0-15.24-10.7,15.63,15.63,0,0,0-5.76.41,11.37,11.37,0,0,0-5.35,2.88c-1,1-2.64,2.65-2.47,4.94a5,5,0,0,0,1.64,3.3c1,.8,1.83.82,4.12,1.23a30.06,30.06,0,0,1,5.35,1.24c1.31.49,4.11,1.56,5.36,4.12,1.09,2.24.45,4.54,0,6.17a17.71,17.71,0,0,1-6.59,9.06,19.24,19.24,0,0,1-11.53,4.53c-2.22,0-5,.11-7.41-1.65-3.86-2.84-4-8.5-4.12-13.59-.11-4.31.58-5.4,1.24-14,.23-3.13.35-5.7.41-7.42A19.76,19.76,0,0,0,91,72.88a20.59,20.59,0,0,0-5.35-1.24A22.77,22.77,0,0,0,78.64,72.05Z"/></g></g></svg>