<svg xmlns="http://www.w3.org/2000/svg" viewBox="0 0 570.63 99.21"><defs><style>.cls-1{fill:#323232;}.cls-2{fill:#6bd600;}</style></defs><g id="Warstwa_2" data-name="Warstwa 2"><g id="Warstwa_1-2" data-name="Warstwa 1"><path class="cls-1" d="M127.84,38.44h8.37l26.08,40.21h.15V38.44h8.77v55.3h-8.37L136.77,53.61h-.16V93.74h-8.77Z"/><path class="cls-1" d="M181.09,85.84V62.29l7.82-7.89h21.8l7.9,7.89V85.84l-7.9,7.9h-21.8Zm25.43.39,3.16-3.16v-18l-3.16-3.16H193.17L190,65.06v18l3.16,3.16Z"/><path class="cls-1" d="M224.14,54.4h9.09l5.21,27.41h.32l7.9-27.41h8.21l7.19,27.41h.32l5.76-27.41h9.09L267.12,93.74h-8.61l-7.75-28.52h-.31l-8.3,28.52h-8.61Z"/><path class="cls-1" d="M281.57,86.71V77.38l7-6.95h20.31V64.59L306,61.66h-12.4l-2.92,2.93v2.52h-8.77V62.53L290,54.4h19.67l8.06,8.13V93.74h-8.14V87.65l-6.32,6.09H288.6Zm20.78,0,6.56-6.32V77.07h-16l-2.53,2.45v4.82l2.37,2.37Z"/><path class="cls-1" d="M348.72,38.44h8.38l26.07,40.21h.15V38.44h8.77v55.3h-8.37L357.65,53.61h-.16V93.74h-8.77Z"/><path class="cls-1" d="M401.57,86.71V77.38l7-6.95h20.31V64.59L426,61.66h-12.4l-2.92,2.93v2.52h-8.77V62.53L410,54.4h19.67l8.06,8.13V93.74h-8.14V87.65l-6.32,6.09H408.6Zm20.78,0,6.56-6.32V77.07h-16l-2.53,2.45v4.82l2.37,2.37Z"/><path class="cls-1" d="M447.15,85.76V54.4h8.93V83l3.08,3.08H466l8.37-8.37V54.4h8.93V93.74H475V86.47l-7.35,7.27H455.13Z"/><path class="cls-1" d="M493.61,37.33h8.92V69.48h7.67L520.7,54.4h9.88l-13.2,19,14,20.38h-9.88L510,77.07h-7.51V93.74h-8.92Z"/><path class="cls-1" d="M534.53,86.71V77.38l7-6.95h20.3V64.59l-2.92-2.93h-12.4l-2.93,2.93v2.52h-8.77V62.53l8.06-8.13h19.67l8.06,8.13V93.74h-8.14V87.65l-6.32,6.09H541.56Zm20.78,0,6.55-6.32V77.07h-16l-2.53,2.45v4.82l2.37,2.37Z"/><path class="cls-2" d="M61.77,0c-.32,1.51-.83,3.8-1.56,6.55-1.4,5.28-2.63,8.54-4.05,12.79A123.36,123.36,0,0,0,52.1,32.76c-.43,2-.88,4.73-.62,20.59.17,10.59.26,15.89.62,20.28.46,5.5,1.09,10.16,1.25,18.09.06,2.89,0,5.28,0,6.86-.73-.62-1.83-1.58-3.12-2.8a94.25,94.25,0,0,1-9.36-10.3c-.8-1-5-5.55-13.42-14.66-3.1-3.36-7.07-8.31-12.79-14.35-.27.42-.77.29-1.56,1.87a7.84,7.84,0,0,0-.93,3.74,50.34,50.34,0,0,0,.31,9.36c1.11,7.22,5.65,12.87,7.17,14.67a76.35,76.35,0,0,0-14,13.1C5.07,97,4.29,93.77,3.43,89.85,1.15,79.38,0,74.15,0,69.57c0-6.94,1.74-11.9,4.37-19.34a94.12,94.12,0,0,1,9.05-18.72,38.35,38.35,0,0,0,1.87,6.24c1.87,4.74,4.5,8.63,10.92,15.6A196.66,196.66,0,0,0,40.87,67.7a26.61,26.61,0,0,0,0-8.74c-.25-1.1-.62-2.18-.62-2.18a20.45,20.45,0,0,0-1.56-3.43c-2.59-4.56.31-15,.31-15,1.19-4.28,4-12.43,12.48-24.95A150.17,150.17,0,0,1,61.77,0Z"/><path class="cls-2" d="M59.59,54.6c-.16,6.16-.25,11.22-.31,15,0,0,0,2.42,0,5.93.08,7.11.39,8.69.62,9.67A14.28,14.28,0,0,0,63,92a13,13,0,0,0,5.3,3.44,19.11,19.11,0,0,0,10.92.62,24.59,24.59,0,0,0,14-9,18.37,18.37,0,0,0,.63,2.19c.75,2.1,1.82,5.08,4.67,6.86a10.42,10.42,0,0,0,8.12.93,10.9,10.9,0,0,0,5.3-3.43c-.12-.11-2.06-2.06-2.18-2.18l-1.88-1.87a19.43,19.43,0,0,1-4-6.87c-.91-2.76-.09-3.17-.31-9-.18-4.82-.27-7.23-1.56-10a13.19,13.19,0,0,0-11.55-8.11,12.05,12.05,0,0,0-4.36.31A8.69,8.69,0,0,0,82.05,58c-.75.75-2,2-1.87,3.74a3.81,3.81,0,0,0,1.25,2.5c.71.6,1.38.62,3.12.93a22.79,22.79,0,0,1,4,.94c1,.38,3.11,1.18,4.06,3.12a6.43,6.43,0,0,1,0,4.68,13.42,13.42,0,0,1-5,6.86,14.54,14.54,0,0,1-8.74,3.43c-1.68,0-3.81.09-5.62-1.24-2.91-2.16-3-6.45-3.11-10.3-.09-3.27.44-4.1.93-10.61.18-2.36.27-4.32.31-5.61A14.63,14.63,0,0,0,69,55.22a16.1,16.1,0,0,0-4.06-.94A17.11,17.11,0,0,0,59.59,54.6Z"/></g></g></svg>